<mxfile host="app.diagrams.net" modified="2024-06-16T21:06:51.381Z" agent="Mozilla/5.0 (Windows NT 10.0; Win64; x64) AppleWebKit/537.36 (KHTML, like Gecko) Chrome/126.0.0.0 Safari/537.36 Edg/126.0.0.0" etag="LmFqSukbBcRnQwO89DHn" version="24.5.4" type="device">
  <diagram name="Страница — 1" id="r_NQvA_FgwxbnGx7e0oy">
    <mxGraphModel dx="-201" dy="862" grid="1" gridSize="10" guides="1" tooltips="1" connect="1" arrows="1" fold="1" page="1" pageScale="1" pageWidth="1169" pageHeight="827" math="0" shadow="0">
      <root>
        <mxCell id="0" />
        <mxCell id="1" parent="0" />
        <mxCell id="GrrmxFpAsFqfiXudQxEy-64" style="edgeStyle=orthogonalEdgeStyle;curved=0;rounded=0;orthogonalLoop=1;jettySize=auto;html=1;exitX=0.5;exitY=0;exitDx=0;exitDy=0;entryX=0.5;entryY=1;entryDx=0;entryDy=0;strokeColor=#A9C4EB;strokeWidth=4;align=center;verticalAlign=middle;fontFamily=Helvetica;fontSize=11;fontColor=default;labelBackgroundColor=default;endArrow=classic;" edge="1" parent="1" source="GrrmxFpAsFqfiXudQxEy-38" target="GrrmxFpAsFqfiXudQxEy-39">
          <mxGeometry relative="1" as="geometry" />
        </mxCell>
        <mxCell id="GrrmxFpAsFqfiXudQxEy-38" value="Ввод игрока" style="rounded=1;whiteSpace=wrap;html=1;absoluteArcSize=1;arcSize=14;strokeWidth=2;fillColor=#ffe6cc;strokeColor=#A9C4EB;fontSize=22;align=center;verticalAlign=middle;fontFamily=Times New Roman;fontStyle=1;fontColor=#CDA2BE;" vertex="1" parent="1">
          <mxGeometry x="1215" y="540" width="100" height="60" as="geometry" />
        </mxCell>
        <mxCell id="GrrmxFpAsFqfiXudQxEy-50" style="edgeStyle=orthogonalEdgeStyle;curved=0;rounded=0;orthogonalLoop=1;jettySize=auto;html=1;exitX=0.5;exitY=0;exitDx=0;exitDy=0;entryX=0.5;entryY=1;entryDx=0;entryDy=0;strokeColor=#A9C4EB;strokeWidth=4;align=center;verticalAlign=middle;fontFamily=Helvetica;fontSize=11;fontColor=default;labelBackgroundColor=default;endArrow=classic;" edge="1" parent="1" source="GrrmxFpAsFqfiXudQxEy-39" target="GrrmxFpAsFqfiXudQxEy-43">
          <mxGeometry relative="1" as="geometry" />
        </mxCell>
        <mxCell id="GrrmxFpAsFqfiXudQxEy-39" value="ChatService" style="rounded=1;whiteSpace=wrap;html=1;absoluteArcSize=1;arcSize=14;strokeWidth=2;fillColor=#ffe6cc;strokeColor=#A9C4EB;fontSize=22;align=center;verticalAlign=middle;fontFamily=Times New Roman;fontStyle=3;fontColor=#CDA2BE;" vertex="1" parent="1">
          <mxGeometry x="1205" y="450" width="120" height="40" as="geometry" />
        </mxCell>
        <mxCell id="GrrmxFpAsFqfiXudQxEy-46" style="edgeStyle=orthogonalEdgeStyle;curved=0;rounded=0;orthogonalLoop=1;jettySize=auto;html=1;exitX=0.5;exitY=0;exitDx=0;exitDy=0;entryX=0;entryY=0.5;entryDx=0;entryDy=0;strokeColor=#A9C4EB;strokeWidth=4;align=center;verticalAlign=middle;fontFamily=Helvetica;fontSize=11;fontColor=default;labelBackgroundColor=default;endArrow=classic;" edge="1" parent="1" source="GrrmxFpAsFqfiXudQxEy-43" target="GrrmxFpAsFqfiXudQxEy-45">
          <mxGeometry relative="1" as="geometry" />
        </mxCell>
        <mxCell id="GrrmxFpAsFqfiXudQxEy-43" value="&lt;div&gt;Request&lt;/div&gt;&lt;div&gt;Data&lt;/div&gt;" style="shape=parallelogram;html=1;strokeWidth=2;perimeter=parallelogramPerimeter;whiteSpace=wrap;rounded=1;arcSize=14;size=0.23;strokeColor=#A9C4EB;align=center;verticalAlign=middle;fontFamily=Times New Roman;fontSize=22;fontColor=#CDA2BE;fontStyle=3;fillColor=#ffe6cc;" vertex="1" parent="1">
          <mxGeometry x="1210" y="354" width="110" height="60" as="geometry" />
        </mxCell>
        <mxCell id="GrrmxFpAsFqfiXudQxEy-76" style="edgeStyle=orthogonalEdgeStyle;curved=0;rounded=0;orthogonalLoop=1;jettySize=auto;html=1;exitX=1;exitY=0.5;exitDx=0;exitDy=0;entryX=0;entryY=0.5;entryDx=0;entryDy=0;strokeColor=#A9C4EB;strokeWidth=4;align=center;verticalAlign=middle;fontFamily=Helvetica;fontSize=11;fontColor=default;labelBackgroundColor=default;endArrow=classic;" edge="1" parent="1" source="GrrmxFpAsFqfiXudQxEy-45" target="GrrmxFpAsFqfiXudQxEy-48">
          <mxGeometry relative="1" as="geometry" />
        </mxCell>
        <mxCell id="GrrmxFpAsFqfiXudQxEy-45" value="OpenAI API" style="rounded=1;whiteSpace=wrap;html=1;absoluteArcSize=1;arcSize=14;strokeWidth=2;fillColor=#ffe6cc;strokeColor=#A9C4EB;fontSize=22;align=center;verticalAlign=middle;fontFamily=Times New Roman;fontStyle=3;fontColor=#CDA2BE;" vertex="1" parent="1">
          <mxGeometry x="1320" y="295" width="120" height="40" as="geometry" />
        </mxCell>
        <mxCell id="GrrmxFpAsFqfiXudQxEy-78" style="edgeStyle=orthogonalEdgeStyle;curved=0;rounded=0;orthogonalLoop=1;jettySize=auto;html=1;exitX=1;exitY=0.5;exitDx=0;exitDy=0;entryX=0.5;entryY=0;entryDx=0;entryDy=0;strokeColor=#A9C4EB;strokeWidth=4;align=center;verticalAlign=middle;fontFamily=Helvetica;fontSize=11;fontColor=default;labelBackgroundColor=default;endArrow=classic;" edge="1" parent="1" source="GrrmxFpAsFqfiXudQxEy-48" target="GrrmxFpAsFqfiXudQxEy-54">
          <mxGeometry relative="1" as="geometry">
            <Array as="points">
              <mxPoint x="1594" y="310" />
              <mxPoint x="1670" y="310" />
            </Array>
          </mxGeometry>
        </mxCell>
        <mxCell id="GrrmxFpAsFqfiXudQxEy-48" value="Response&lt;div&gt;Data&lt;/div&gt;" style="shape=parallelogram;html=1;strokeWidth=2;perimeter=parallelogramPerimeter;whiteSpace=wrap;rounded=1;arcSize=14;size=0.23;strokeColor=#A9C4EB;align=center;verticalAlign=middle;fontFamily=Times New Roman;fontSize=22;fontColor=#CDA2BE;fontStyle=3;fillColor=#ffe6cc;" vertex="1" parent="1">
          <mxGeometry x="1470" y="288" width="140" height="54" as="geometry" />
        </mxCell>
        <mxCell id="GrrmxFpAsFqfiXudQxEy-65" style="edgeStyle=orthogonalEdgeStyle;curved=0;rounded=0;orthogonalLoop=1;jettySize=auto;html=1;exitX=0.5;exitY=0;exitDx=0;exitDy=0;entryX=0.5;entryY=1;entryDx=0;entryDy=0;strokeColor=#A9C4EB;strokeWidth=4;align=center;verticalAlign=middle;fontFamily=Helvetica;fontSize=11;fontColor=default;labelBackgroundColor=default;endArrow=classic;" edge="1" parent="1" source="GrrmxFpAsFqfiXudQxEy-51" target="GrrmxFpAsFqfiXudQxEy-38">
          <mxGeometry relative="1" as="geometry" />
        </mxCell>
        <mxCell id="GrrmxFpAsFqfiXudQxEy-51" value="ChatPanel" style="rounded=1;whiteSpace=wrap;html=1;absoluteArcSize=1;arcSize=14;strokeWidth=2;fillColor=#ffe6cc;strokeColor=#A9C4EB;fontSize=22;align=center;verticalAlign=middle;fontFamily=Times New Roman;fontStyle=3;fontColor=#CDA2BE;" vertex="1" parent="1">
          <mxGeometry x="1205" y="645" width="120" height="40" as="geometry" />
        </mxCell>
        <mxCell id="GrrmxFpAsFqfiXudQxEy-79" style="edgeStyle=orthogonalEdgeStyle;curved=0;rounded=0;orthogonalLoop=1;jettySize=auto;html=1;exitX=0.5;exitY=1;exitDx=0;exitDy=0;strokeColor=#A9C4EB;strokeWidth=4;align=center;verticalAlign=middle;fontFamily=Helvetica;fontSize=11;fontColor=default;labelBackgroundColor=default;endArrow=classic;" edge="1" parent="1" source="GrrmxFpAsFqfiXudQxEy-54" target="GrrmxFpAsFqfiXudQxEy-56">
          <mxGeometry relative="1" as="geometry" />
        </mxCell>
        <mxCell id="GrrmxFpAsFqfiXudQxEy-54" value="ChatPanel" style="rounded=1;whiteSpace=wrap;html=1;absoluteArcSize=1;arcSize=14;strokeWidth=2;fillColor=#ffe6cc;strokeColor=#A9C4EB;fontSize=22;align=center;verticalAlign=middle;fontFamily=Times New Roman;fontStyle=3;fontColor=#CDA2BE;" vertex="1" parent="1">
          <mxGeometry x="1610" y="370" width="120" height="40" as="geometry" />
        </mxCell>
        <mxCell id="GrrmxFpAsFqfiXudQxEy-56" value="ChatOptimizer" style="rounded=1;whiteSpace=wrap;html=1;absoluteArcSize=1;arcSize=14;strokeWidth=2;fillColor=#ffe6cc;strokeColor=#A9C4EB;fontSize=22;align=center;verticalAlign=middle;fontFamily=Times New Roman;fontStyle=3;fontColor=#CDA2BE;" vertex="1" parent="1">
          <mxGeometry x="1600" y="450" width="140" height="40" as="geometry" />
        </mxCell>
        <mxCell id="GrrmxFpAsFqfiXudQxEy-83" style="edgeStyle=orthogonalEdgeStyle;curved=0;rounded=0;orthogonalLoop=1;jettySize=auto;html=1;exitX=0.5;exitY=1;exitDx=0;exitDy=0;exitPerimeter=0;entryX=0.5;entryY=0;entryDx=0;entryDy=0;strokeColor=#A9C4EB;strokeWidth=4;align=center;verticalAlign=middle;fontFamily=Helvetica;fontSize=11;fontColor=default;labelBackgroundColor=default;endArrow=classic;" edge="1" parent="1" source="GrrmxFpAsFqfiXudQxEy-62" target="GrrmxFpAsFqfiXudQxEy-66">
          <mxGeometry relative="1" as="geometry" />
        </mxCell>
        <mxCell id="GrrmxFpAsFqfiXudQxEy-92" style="edgeStyle=orthogonalEdgeStyle;curved=0;rounded=0;orthogonalLoop=1;jettySize=auto;html=1;exitX=0.5;exitY=0;exitDx=0;exitDy=0;exitPerimeter=0;entryX=1;entryY=0.5;entryDx=0;entryDy=0;strokeColor=#A9C4EB;strokeWidth=4;align=center;verticalAlign=middle;fontFamily=Helvetica;fontSize=11;fontColor=default;labelBackgroundColor=default;endArrow=classic;" edge="1" parent="1" source="GrrmxFpAsFqfiXudQxEy-62" target="GrrmxFpAsFqfiXudQxEy-67">
          <mxGeometry relative="1" as="geometry" />
        </mxCell>
        <mxCell id="GrrmxFpAsFqfiXudQxEy-62" value="Размер контекса" style="strokeWidth=2;html=1;shape=mxgraph.flowchart.decision;whiteSpace=wrap;rounded=1;strokeColor=#A9C4EB;align=center;verticalAlign=middle;arcSize=14;fontFamily=Times New Roman;fontSize=22;fontColor=#CDA2BE;fontStyle=1;fillColor=#ffe6cc;" vertex="1" parent="1">
          <mxGeometry x="1608" y="620" width="145" height="120" as="geometry" />
        </mxCell>
        <mxCell id="GrrmxFpAsFqfiXudQxEy-86" style="edgeStyle=orthogonalEdgeStyle;curved=0;rounded=0;orthogonalLoop=1;jettySize=auto;html=1;exitX=0;exitY=0.5;exitDx=0;exitDy=0;entryX=1;entryY=0.5;entryDx=0;entryDy=0;strokeColor=#A9C4EB;strokeWidth=4;align=center;verticalAlign=middle;fontFamily=Helvetica;fontSize=11;fontColor=default;labelBackgroundColor=default;endArrow=classic;" edge="1" parent="1" source="GrrmxFpAsFqfiXudQxEy-66" target="GrrmxFpAsFqfiXudQxEy-70">
          <mxGeometry relative="1" as="geometry" />
        </mxCell>
        <mxCell id="GrrmxFpAsFqfiXudQxEy-66" value="Превышен" style="text;html=1;align=center;verticalAlign=middle;whiteSpace=wrap;rounded=0;fontFamily=Times New Roman;fontSize=22;fontColor=#CDA2BE;fontStyle=1;" vertex="1" parent="1">
          <mxGeometry x="1625.5" y="820" width="110" height="30" as="geometry" />
        </mxCell>
        <mxCell id="GrrmxFpAsFqfiXudQxEy-67" value="Не превышен" style="text;html=1;align=center;verticalAlign=middle;whiteSpace=wrap;rounded=0;fontFamily=Times New Roman;fontSize=22;fontColor=#CDA2BE;fontStyle=1;" vertex="1" parent="1">
          <mxGeometry x="1530" y="540" width="115" height="50" as="geometry" />
        </mxCell>
        <mxCell id="GrrmxFpAsFqfiXudQxEy-89" style="edgeStyle=orthogonalEdgeStyle;curved=0;rounded=0;orthogonalLoop=1;jettySize=auto;html=1;exitX=0.5;exitY=0;exitDx=0;exitDy=0;strokeColor=#A9C4EB;strokeWidth=4;align=center;verticalAlign=middle;fontFamily=Helvetica;fontSize=11;fontColor=default;labelBackgroundColor=default;endArrow=classic;" edge="1" parent="1" source="GrrmxFpAsFqfiXudQxEy-68">
          <mxGeometry relative="1" as="geometry">
            <mxPoint x="1390" y="710" as="targetPoint" />
          </mxGeometry>
        </mxCell>
        <mxCell id="GrrmxFpAsFqfiXudQxEy-68" value="Очистка&lt;div&gt;сообщений&lt;/div&gt;" style="verticalLabelPosition=middle;verticalAlign=middle;html=1;shape=trapezoid;perimeter=trapezoidPerimeter;whiteSpace=wrap;size=0.23;arcSize=14;flipV=1;labelPosition=center;align=center;fontFamily=Times New Roman;fontSize=22;fontColor=#CDA2BE;labelBackgroundColor=none;rounded=1;strokeColor=#A9C4EB;strokeWidth=2;fontStyle=1;fillColor=#ffe6cc;" vertex="1" parent="1">
          <mxGeometry x="1405" y="730" width="195" height="50" as="geometry" />
        </mxCell>
        <mxCell id="GrrmxFpAsFqfiXudQxEy-87" style="edgeStyle=orthogonalEdgeStyle;curved=0;rounded=0;orthogonalLoop=1;jettySize=auto;html=1;exitX=0.5;exitY=0;exitDx=0;exitDy=0;entryX=0.5;entryY=1;entryDx=0;entryDy=0;strokeColor=#A9C4EB;strokeWidth=4;align=center;verticalAlign=middle;fontFamily=Helvetica;fontSize=11;fontColor=default;labelBackgroundColor=default;endArrow=classic;" edge="1" parent="1" source="GrrmxFpAsFqfiXudQxEy-70" target="GrrmxFpAsFqfiXudQxEy-68">
          <mxGeometry relative="1" as="geometry" />
        </mxCell>
        <mxCell id="GrrmxFpAsFqfiXudQxEy-70" value="ChatService" style="rounded=1;whiteSpace=wrap;html=1;absoluteArcSize=1;arcSize=14;strokeWidth=2;fillColor=#ffe6cc;strokeColor=#A9C4EB;fontSize=22;align=center;verticalAlign=middle;fontFamily=Times New Roman;fontStyle=3;fontColor=#CDA2BE;" vertex="1" parent="1">
          <mxGeometry x="1442.5" y="815" width="120" height="40" as="geometry" />
        </mxCell>
        <mxCell id="GrrmxFpAsFqfiXudQxEy-80" style="edgeStyle=orthogonalEdgeStyle;curved=0;rounded=0;orthogonalLoop=1;jettySize=auto;html=1;exitX=1;exitY=0.5;exitDx=0;exitDy=0;entryX=1;entryY=0.5;entryDx=0;entryDy=0;entryPerimeter=0;strokeColor=#A9C4EB;strokeWidth=4;align=center;verticalAlign=middle;fontFamily=Helvetica;fontSize=11;fontColor=default;labelBackgroundColor=default;endArrow=classic;" edge="1" parent="1" source="GrrmxFpAsFqfiXudQxEy-56" target="GrrmxFpAsFqfiXudQxEy-62">
          <mxGeometry relative="1" as="geometry">
            <Array as="points">
              <mxPoint x="1780" y="470" />
              <mxPoint x="1780" y="680" />
            </Array>
          </mxGeometry>
        </mxCell>
        <mxCell id="GrrmxFpAsFqfiXudQxEy-81" value="" style="strokeWidth=4;html=1;shape=mxgraph.flowchart.annotation_2;align=center;labelPosition=right;pointerEvents=1;fontFamily=Helvetica;fontSize=11;fontColor=default;labelBackgroundColor=default;rounded=0;strokeColor=#A9C4EB;verticalAlign=middle;" vertex="1" parent="1">
          <mxGeometry x="1325" y="610" width="65" height="100" as="geometry" />
        </mxCell>
        <mxCell id="GrrmxFpAsFqfiXudQxEy-91" style="edgeStyle=orthogonalEdgeStyle;curved=0;rounded=0;orthogonalLoop=1;jettySize=auto;html=1;exitX=0.5;exitY=1;exitDx=0;exitDy=0;entryX=1;entryY=0;entryDx=0;entryDy=0;entryPerimeter=0;strokeColor=#A9C4EB;strokeWidth=4;align=center;verticalAlign=middle;fontFamily=Helvetica;fontSize=11;fontColor=default;labelBackgroundColor=default;endArrow=classic;" edge="1" parent="1" source="GrrmxFpAsFqfiXudQxEy-67" target="GrrmxFpAsFqfiXudQxEy-81">
          <mxGeometry relative="1" as="geometry">
            <Array as="points">
              <mxPoint x="1590" y="590" />
              <mxPoint x="1590" y="610" />
            </Array>
          </mxGeometry>
        </mxCell>
        <mxCell id="GrrmxFpAsFqfiXudQxEy-94" style="edgeStyle=orthogonalEdgeStyle;curved=0;rounded=0;orthogonalLoop=1;jettySize=auto;html=1;exitX=0.5;exitY=0;exitDx=0;exitDy=0;exitPerimeter=0;entryX=0.5;entryY=1;entryDx=0;entryDy=0;strokeColor=#A9C4EB;strokeWidth=4;align=center;verticalAlign=middle;fontFamily=Helvetica;fontSize=11;fontColor=default;labelBackgroundColor=default;endArrow=classic;" edge="1" parent="1" source="GrrmxFpAsFqfiXudQxEy-93" target="GrrmxFpAsFqfiXudQxEy-51">
          <mxGeometry relative="1" as="geometry" />
        </mxCell>
        <mxCell id="GrrmxFpAsFqfiXudQxEy-93" value="Открытие чата" style="strokeWidth=2;html=1;shape=mxgraph.flowchart.start_1;whiteSpace=wrap;fontSize=22;fillColor=#f8cecc;strokeColor=#b85450;fontColor=#A680B8;fontFamily=Times New Roman;fontStyle=1" vertex="1" parent="1">
          <mxGeometry x="1202.5" y="730" width="125" height="70" as="geometry" />
        </mxCell>
      </root>
    </mxGraphModel>
  </diagram>
</mxfile>
